<?xml version="1.0" encoding="UTF-8" standalone="no"?>
<!DOCTYPE svg PUBLIC "-//W3C//DTD SVG 1.1//EN" "http://www.w3.org/Graphics/SVG/1.1/DTD/svg11.dtd">
<svg width="100%" height="100%" viewBox="0 0 128 128" version="1.1" xmlns="http://www.w3.org/2000/svg" xmlns:xlink="http://www.w3.org/1999/xlink" xml:space="preserve" xmlns:serif="http://www.serif.com/" style="fill-rule:evenodd;clip-rule:evenodd;stroke-linejoin:round;stroke-miterlimit:2;">
    <g id="Light-M" transform="matrix(1.25478,0,0,1.25478,-7.13855,108.18)">
        <path d="M26.856,9.033L86.475,9.033C96.045,9.033 100.879,4.15 100.879,-5.225L100.879,-65.088C100.879,-74.512 96.045,-79.394 86.475,-79.394L26.856,-79.394C17.334,-79.394 12.451,-74.561 12.451,-65.088L12.451,-5.225C12.451,4.199 17.334,9.033 26.856,9.033ZM27.002,2.979C21.484,2.979 18.506,0.098 18.506,-5.566L18.506,-64.795C18.506,-70.41 21.484,-73.34 27.002,-73.34L86.377,-73.34C91.748,-73.34 94.824,-70.41 94.824,-64.795L94.824,-5.566C94.824,0.098 91.748,2.979 86.377,2.979L27.002,2.979ZM35.889,-32.031L77.49,-32.031C79.541,-32.031 81.006,-33.203 81.006,-35.156C81.006,-37.158 79.639,-38.33 77.49,-38.33L35.889,-38.33C33.74,-38.33 32.324,-37.158 32.324,-35.156C32.324,-33.203 33.838,-32.031 35.889,-32.031Z" style="fill-rule:nonzero;"/>
    </g>
</svg>
