<?xml version="1.0" encoding="UTF-8" standalone="no"?>
<!DOCTYPE svg PUBLIC "-//W3C//DTD SVG 1.1//EN" "http://www.w3.org/Graphics/SVG/1.1/DTD/svg11.dtd">
<svg width="100%" height="100%" viewBox="0 0 128 128" version="1.1" xmlns="http://www.w3.org/2000/svg" xmlns:xlink="http://www.w3.org/1999/xlink" xml:space="preserve" xmlns:serif="http://www.serif.com/" style="fill-rule:evenodd;clip-rule:evenodd;stroke-linejoin:round;stroke-miterlimit:2;">
    <g id="Light-M" transform="matrix(0.933892,0,0,0.933892,-11.6281,97.4706)">
        <path d="M26.856,2.051L135.107,2.051C144.629,2.051 149.512,-2.832 149.512,-12.256L149.512,-59.473C149.512,-68.848 144.629,-73.731 135.107,-73.731L26.856,-73.731C17.334,-73.731 12.451,-68.897 12.451,-59.473L12.451,-12.256C12.451,-2.783 17.334,2.051 26.856,2.051ZM27.002,-4.004C21.484,-4.004 18.506,-6.934 18.506,-12.549L18.506,-59.131C18.506,-64.795 21.484,-67.676 27.002,-67.676L134.961,-67.676C140.381,-67.676 143.457,-64.795 143.457,-59.131L143.457,-12.549C143.457,-6.934 140.381,-4.004 134.961,-4.004L27.002,-4.004ZM126.123,-48.096L129.639,-48.096C130.908,-48.096 131.445,-48.682 131.445,-49.902L131.445,-53.418C131.445,-54.688 130.908,-55.225 129.639,-55.225L126.123,-55.225C124.902,-55.225 124.316,-54.688 124.316,-53.418L124.316,-49.902C124.316,-48.682 124.902,-48.096 126.123,-48.096ZM110.449,-48.096L113.916,-48.096C115.186,-48.096 115.723,-48.682 115.723,-49.902L115.723,-53.418C115.723,-54.688 115.186,-55.225 113.916,-55.225L110.449,-55.225C109.18,-55.225 108.594,-54.688 108.594,-53.418L108.594,-49.902C108.594,-48.682 109.18,-48.096 110.449,-48.096ZM94.727,-48.096L98.242,-48.096C99.463,-48.096 100.049,-48.682 100.049,-49.902L100.049,-53.418C100.049,-54.688 99.463,-55.225 98.242,-55.225L94.727,-55.225C93.457,-55.225 92.92,-54.688 92.92,-53.418L92.92,-49.902C92.92,-48.682 93.457,-48.096 94.727,-48.096ZM79.004,-48.096L82.519,-48.096C83.789,-48.096 84.326,-48.682 84.326,-49.902L84.326,-53.418C84.326,-54.688 83.789,-55.225 82.519,-55.225L79.004,-55.225C77.783,-55.225 77.197,-54.688 77.197,-53.418L77.197,-49.902C77.197,-48.682 77.783,-48.096 79.004,-48.096ZM63.33,-48.096L66.797,-48.096C68.066,-48.096 68.652,-48.682 68.652,-49.902L68.652,-53.418C68.652,-54.688 68.066,-55.225 66.797,-55.225L63.33,-55.225C62.06,-55.225 61.475,-54.688 61.475,-53.418L61.475,-49.902C61.475,-48.682 62.06,-48.096 63.33,-48.096ZM47.607,-48.096L51.123,-48.096C52.344,-48.096 52.93,-48.682 52.93,-49.902L52.93,-53.418C52.93,-54.688 52.344,-55.225 51.123,-55.225L47.607,-55.225C46.338,-55.225 45.801,-54.688 45.801,-53.418L45.801,-49.902C45.801,-48.682 46.338,-48.096 47.607,-48.096ZM31.885,-48.096L35.4,-48.096C36.67,-48.096 37.207,-48.682 37.207,-49.902L37.207,-53.418C37.207,-54.688 36.67,-55.225 35.4,-55.225L31.885,-55.225C30.664,-55.225 30.078,-54.688 30.078,-53.418L30.078,-49.902C30.078,-48.682 30.664,-48.096 31.885,-48.096ZM63.33,-32.422L66.797,-32.422C68.066,-32.422 68.652,-32.959 68.652,-34.228L68.652,-37.695C68.652,-38.965 68.066,-39.551 66.797,-39.551L63.33,-39.551C62.06,-39.551 61.475,-38.965 61.475,-37.695L61.475,-34.228C61.475,-32.959 62.06,-32.422 63.33,-32.422ZM79.004,-32.422L82.519,-32.422C83.789,-32.422 84.326,-32.959 84.326,-34.228L84.326,-37.695C84.326,-38.965 83.789,-39.551 82.519,-39.551L79.004,-39.551C77.783,-39.551 77.197,-38.965 77.197,-37.695L77.197,-34.228C77.197,-32.959 77.783,-32.422 79.004,-32.422ZM94.727,-32.422L98.242,-32.422C99.463,-32.422 100.049,-32.959 100.049,-34.228L100.049,-37.695C100.049,-38.965 99.463,-39.551 98.242,-39.551L94.727,-39.551C93.457,-39.551 92.92,-38.965 92.92,-37.695L92.92,-34.228C92.92,-32.959 93.457,-32.422 94.727,-32.422ZM110.449,-32.422L113.916,-32.422C115.186,-32.422 115.723,-32.959 115.723,-34.228L115.723,-37.695C115.723,-38.965 115.186,-39.551 113.916,-39.551L110.449,-39.551C109.18,-39.551 108.594,-38.965 108.594,-37.695L108.594,-34.228C108.594,-32.959 109.18,-32.422 110.449,-32.422ZM47.607,-32.422L51.123,-32.422C52.344,-32.422 52.93,-32.959 52.93,-34.228L52.93,-37.695C52.93,-38.965 52.344,-39.551 51.123,-39.551L47.607,-39.551C46.338,-39.551 45.801,-38.965 45.801,-37.695L45.801,-34.228C45.801,-32.959 46.338,-32.422 47.607,-32.422ZM126.123,-32.422L129.639,-32.422C130.908,-32.422 131.445,-32.959 131.445,-34.228L131.445,-37.695C131.445,-38.965 130.908,-39.551 129.639,-39.551L126.123,-39.551C124.902,-39.551 124.316,-38.965 124.316,-37.695L124.316,-34.228C124.316,-32.959 124.902,-32.422 126.123,-32.422ZM31.885,-32.422L35.4,-32.422C36.67,-32.422 37.207,-32.959 37.207,-34.228L37.207,-37.695C37.207,-38.965 36.67,-39.551 35.4,-39.551L31.885,-39.551C30.664,-39.551 30.078,-38.965 30.078,-37.695L30.078,-34.228C30.078,-32.959 30.664,-32.422 31.885,-32.422ZM47.607,-16.699L113.916,-16.699C115.186,-16.699 115.723,-17.236 115.723,-18.506L115.723,-22.022C115.723,-23.242 115.186,-23.828 113.916,-23.828L47.607,-23.828C46.338,-23.828 45.801,-23.242 45.801,-22.022L45.801,-18.506C45.801,-17.236 46.338,-16.699 47.607,-16.699ZM126.123,-16.699L129.639,-16.699C130.908,-16.699 131.445,-17.236 131.445,-18.506L131.445,-22.022C131.445,-23.242 130.908,-23.828 129.639,-23.828L126.123,-23.828C124.902,-23.828 124.316,-23.242 124.316,-22.022L124.316,-18.506C124.316,-17.236 124.902,-16.699 126.123,-16.699ZM31.885,-16.699L35.4,-16.699C36.67,-16.699 37.207,-17.236 37.207,-18.506L37.207,-22.022C37.207,-23.242 36.67,-23.828 35.4,-23.828L31.885,-23.828C30.664,-23.828 30.078,-23.242 30.078,-22.022L30.078,-18.506C30.078,-17.236 30.664,-16.699 31.885,-16.699Z" style="fill-rule:nonzero;"/>
    </g>
</svg>
