<?xml version="1.0" encoding="UTF-8" standalone="no"?>
<!DOCTYPE svg PUBLIC "-//W3C//DTD SVG 1.1//EN" "http://www.w3.org/Graphics/SVG/1.1/DTD/svg11.dtd">
<svg width="100%" height="100%" viewBox="0 0 128 128" version="1.1" xmlns="http://www.w3.org/2000/svg" xmlns:xlink="http://www.w3.org/1999/xlink" xml:space="preserve" xmlns:serif="http://www.serif.com/" style="fill-rule:evenodd;clip-rule:evenodd;stroke-linejoin:round;stroke-miterlimit:2;">
    <g id="Light-M" transform="matrix(1.08468,0,0,1.13895,-11.588,106.308)">
        <path d="M26.856,9.033L112.402,9.033C121.973,9.033 126.807,4.15 126.807,-5.225L126.807,-65.088C126.807,-74.512 121.973,-79.394 112.402,-79.394L26.856,-79.394C17.334,-79.394 12.451,-74.561 12.451,-65.088L12.451,-5.225C12.451,4.199 17.334,9.033 26.856,9.033ZM27.002,2.979C21.484,2.979 18.506,0.098 18.506,-5.566L18.506,-64.795C18.506,-70.41 21.484,-73.34 27.002,-73.34L112.305,-73.34C117.676,-73.34 120.801,-70.41 120.801,-64.795L120.801,-5.566C120.801,0.098 117.676,2.979 112.305,2.979L27.002,2.979ZM111.724,-59.678C111.724,-61.876 110.504,-63.731 107.573,-63.731L70.557,-63.731C67.579,-63.731 66.358,-61.876 66.358,-59.678L66.358,-58.018C66.358,-55.772 67.579,-53.965 70.557,-53.965L107.573,-53.965C110.504,-53.965 111.724,-55.772 111.724,-58.018L111.724,-59.678Z" style="fill-rule:nonzero;"/>
    </g>
</svg>
